<?xml version="1.0" encoding="UTF-8"?>
<!-- Simplified tab mark (transparent); mirrors assets/brand/favicon-mark.svg for default /favicon.svg requests -->
<svg xmlns="http://www.w3.org/2000/svg" viewBox="0 0 64 64" role="img" aria-hidden="true">
  <defs>
    <linearGradient id="rootFavGrad" x1="2" y1="32" x2="62" y2="32" gradientUnits="userSpaceOnUse">
      <stop offset="0%" stop-color="#a1a1aa"/>
      <stop offset="48%" stop-color="#52525b"/>
      <stop offset="100%" stop-color="#09090b"/>
    </linearGradient>
  </defs>
  <path fill="none" stroke="url(#rootFavGrad)" stroke-width="5.5" stroke-linecap="round" d="M 13 17 Q 3 32 13 47"/>
  <g fill="url(#rootFavGrad)" transform="translate(-4.5 -0.25) scale(1.04)">
    <path d="M42.5 22h3.1v3.5c1-.12 1.85.2 2.35.9.45.62.45 1.45 0 2.15-.42.58-1.2.92-2.35 1v.75c1.45-.1 2.5.35 2.95 1.05.35.58.3 1.3-.12 1.95-.52.78-1.6 1.2-2.95 1.25V44h-3.1v-3.3c-1.45.04-2.5-.35-2.95-1.15l2.45-.75c.18.45.58.68 1.15.68.55 0 .85-.25.85-.65 0-.48-.48-.78-1.45-.82V24.5c1.35-.18 2.25-.75 2.7-1.55.32-.62.25-1.35-.12-1.95-.48-.85-1.6-1.32-3.1-1.2V22z"/>
    <rect x="47.2" y="25.5" width="2.1" height="17.5" rx="0.6"/>
  </g>
</svg>
